<?xml version="1.0" encoding="utf-8"?>
<?xml-stylesheet type="text/xsl" href="rss1.xsl"?>
<rss version="2.0" xmlns:atom="http://www.w3.org/2005/Atom" xmlns:content="http://purl.org/rss/1.0/modules/content/" xmlns:dc="http://purl.org/dc/elements/1.1/" xmlns:media="http://search.yahoo.com/mrss/">
<channel>
 <title>Getty</title>
 <link>http://www.gettyimg.com/</link>
 <atom:link href="http://www.gettyimg.com/" rel="self" type="application/rss+xml" />

 
                <item>
                <title><![CDATA[【HD Live Performances】FEED - Bebe Rexha - I'm Good (Blue) ( Live @ Macy's 4th of July Fireworks Spectacular 2023 ) FEED HDTV H264 1080i MP2-ilya2129]]></title>
                <link><![CDATA[https://sharemania.us/threads/bebe-rexha-im-good-blue-live-macys-4th-of-july-fireworks-spectacular-2023-feed-hdtv-h264-1080i-mp2-ilya2129.224133/]]></link>
                <description><![CDATA[<article>
<blockquote class="messageText SelectQuoteContainer ugc baseHtml">
<div style="text-align: center"><img src="https://i122.fastpic.org/big/2023/0705/69/76ebbafb9bb4b356b28a64f87a0ae069.png?r=1" class="bbCodeImage LbImage" alt="[​IMG]" data-url="https://i122.fastpic.org/big/2023/0705/69/76ebbafb9bb4b356b28a64f87a0ae069.png?r=1" style=""><br>
<br>
<a href="https://postimg.cc/ZCTJ1Tpw" target="_blank" class="externalLink" rel="nofollow"><img src="https://i.postimg.cc/ZCTJ1Tpw/vlcsnap-2023-07-08-23h12m43s354.png" class="bbCodeImage LbImage" alt="[​IMG]" data-url="https://i.postimg.cc/ZCTJ1Tpw/vlcsnap-2023-07-08-23h12m43s354.png"></a> <a href="https://postimg.cc/z3kyL2kP" target="_blank" class="externalLink" rel="nofollow"><img src="https://i.postimg.cc/z3kyL2kP/vlcsnap-2023-07-08-23h12m45s331.png" class="bbCodeImage LbImage" alt="[​IMG]" data-url="https://i.postimg.cc/z3kyL2kP/vlcsnap-2023-07-08-23h12m45s331.png"></a> <a href="https://postimg.cc/Xp7p9KHN" target="_blank" class="externalLink" rel="nofollow"><img src="https://i.postimg.cc/Xp7p9KHN/vlcsnap-2023-07-08-23h12m47s293.png" class="bbCodeImage LbImage" alt="[​IMG]" data-url="https://i.postimg.cc/Xp7p9KHN/vlcsnap-2023-07-08-23h12m47s293.png"></a> <a href="https://postimg.cc/rDDsPV2v" target="_blank" class="externalLink" rel="nofollow"><img src="https://i.postimg.cc/rDDsPV2v/vlcsnap-2023-07-08-23h12m49s294.png" class="bbCodeImage LbImage" alt="[​IMG]" data-url="https://i.postimg.cc/rDDsPV2v/vlcsnap-2023-07-08-23h12m49s294.png"></a> <a href="https://postimg.cc/87xc821s" target="_blank" class="externalLink" rel="nofollow"><img src="https://i.postimg.cc/87xc821s/vlcsnap-2023-07-08-23h12m52s111.png" class="bbCodeImage LbImage" alt="[​IMG]" data-url="https://i.postimg.cc/87xc821s/vlcsnap-2023-07-08-23h12m52s111.png"></a> <a href="https://postimg.cc/jLgCcWmH" target="_blank" class="externalLink" rel="nofollow"><img src="https://i.postimg.cc/jLgCcWmH/vlcsnap-2023-07-08-23h12m54s573.png" class="bbCodeImage LbImage" alt="[​IMG]" data-url="https://i.postimg.cc/jLgCcWmH/vlcsnap-2023-07-08-23h12m54s573.png"></a> <br>
<br>
​</div><br>
<div class="bbCodeBlock bbCodeCode">
<div class="type">Code:</div>
<pre>General
ID                                       : 1 (0x1)
Complete name                            : D:\Bebe Rexha - I'm Good (Blue) ( Live @ Macy's 4th of July Fireworks Spectacular 2023 ) FEED HDTV H264 1080i MP2-ilya2129.ts
Format                                   : MPEG-TS
File size                                : 686 MiB
Duration                                 : 2 min 50 s
Overall bit rate mode                    : Variable
Overall bit rate                         : 33.8 Mb/s
Frame rate                               : 29.970 FPS

Video
ID                                       : 81 (0x51)
Menu ID                                  : 1 (0x1)
Format                                   : AVC
Format/Info                              : Advanced Video Codec
Format profile                           : High@L4.1
Format settings                          : 3 Ref Frames
Format settings, CABAC                   : No
Format settings, Reference frames        : 3 frames
Format settings, GOP                     : M=3, N=30
Codec ID                                 : 27
Duration                                 : 2 min 50 s
Bit rate mode                            : Constant
Bit rate                                 : 31.3 Mb/s
Width                                    : 1 920 pixels
Height                                   : 1 080 pixels
Display aspect ratio                     : 16:9
Frame rate                               : 29.970 (30000/1001) FPS
Color space                              : YUV
Chroma subsampling                       : 4:2:0
Bit depth                                : 8 bits
Scan type                                : Interlaced
Scan type, store method                  : Separated fields
Scan order                               : Top Field First
Bits/(Pixel*Frame)                       : 0.504
Stream size                              : 620 MiB (90%)
Color range                              : Limited
Color primaries                          : BT.709
Transfer characteristics                 : BT.709
Matrix coefficients                      : BT.709

Audio #1
ID                                       : 84 (0x54)
Menu ID                                  : 1 (0x1)
Format                                   : MPEG Audio
Format version                           : Version 1
Format profile                           : Layer 2
Codec ID                                 : 3
Duration                                 : 2 min 50 s
Bit rate mode                            : Constant
Bit rate                                 : 384 kb/s
Channel(s)                               : 2 channels
Sampling rate                            : 48.0 kHz
Frame rate                               : 41.667 FPS (1152 SPF)
Compression mode                         : Lossy
Stream size                              : 7.78 MiB (1%)
Language                                 : English

Audio #2
ID                                       : 85 (0x55)
Menu ID                                  : 1 (0x1)
Format                                   : MPEG Audio
Format version                           : Version 1
Format profile                           : Layer 2
Codec ID                                 : 3
Duration                                 : 2 min 50 s
Bit rate mode                            : Constant
Bit rate                                 : 384 kb/s
Channel(s)                               : 2 channels
Sampling rate                            : 48.0 kHz
Frame rate                               : 41.667 FPS (1152 SPF)
Compression mode                         : Lossy
Stream size                              : 7.78 MiB (1%)
Language                                 : English

Audio #3
ID                                       : 87 (0x57)
Menu ID                                  : 1 (0x1)
Format                                   : MPEG Audio
Format version                           : Version 1
Format profile                           : Layer 2
Codec ID                                 : 3
Duration                                 : 2 min 50 s
Bit rate mode                            : Constant
Bit rate                                 : 384 kb/s
Channel(s)                               : 2 channels
Sampling rate                            : 48.0 kHz
Frame rate                               : 41.667 FPS (1152 SPF)
Compression mode                         : Lossy
Stream size                              : 7.78 MiB (1%)
Language                                 : English

Audio #4
ID                                       : 89 (0x59)
Menu ID                                  : 1 (0x1)
Format                                   : MPEG Audio
Format version                           : Version 1
Format profile                           : Layer 2
Codec ID                                 : 3
Duration                                 : 2 min 50 s
Bit rate mode                            : Constant
Bit rate                                 : 384 kb/s
Channel(s)                               : 2 channels
Sampling rate                            : 48.0 kHz
Frame rate                               : 41.667 FPS (1152 SPF)
Compression mode                         : Lossy
Stream size                              : 7.78 MiB (1%)
Language                                 : English
</pre>
</div>
<div class="bbCodeBlock bbCodeVfcHH HiddenContent">
<div class="attribution type">Hidden Content:</div>
<blockquote>You must reply before you can see the hidden data contained here.</blockquote>
</div>
<div class="messageTextEndMarker">&nbsp;</div>
</blockquote>
</article>]]></description>
                <author><![CDATA[ilya2129]]></author>
                </item>

                </channel></rss>